{
    "asset": {
        "version": "2.0",
        "generator": "Open Asset Import Library (assimp v5.0.5eb040c7)"
    },
    "accessors": [
        {
            "bufferView": 0,
            "byteOffset": 0,
            "componentType": 5126,
            "count": 300,
            "type": "VEC3",
            "max": [
                -30.4866943359375,
                3.176635980606079,
                301.2074279785156
            ],
            "min": [
                -33.66668701171875,
                0.0,
                301.2074279785156
            ]
        },
        {
            "bufferView": 1,
            "byteOffset": 0,
            "componentType": 5126,
            "count": 300,
            "type": "VEC3",
            "max": [
                0.0,
                0.0,
                1.0
            ],
            "min": [
                0.0,
                0.0,
                1.0
            ]
        },
        {
            "bufferView": 2,
            "byteOffset": 0,
            "componentType": 5126,
            "count": 300,
            "type": "VEC2",
            "max": [
                1.0,
                1.0
            ],
            "min": [
                0.0,
                0.0
            ]
        },
        {
            "bufferView": 3,
            "byteOffset": 0,
            "componentType": 5125,
            "count": 1269,
            "type": "SCALAR",
            "max": [
                299
            ],
            "min": [
                0
            ]
        },
        {
            "bufferView": 4,
            "byteOffset": 0,
            "componentType": 5126,
            "count": 1,
            "type": "VEC3",
            "max": [
                -32.07861328125,
                0.011353000067174435,
                301.2074279785156
            ],
            "min": [
                -32.07861328125,
                0.011353000067174435,
                301.2074279785156
            ]
        },
        {
            "bufferView": 5,
            "byteOffset": 0,
            "componentType": 5126,
            "count": 1,
            "type": "VEC3",
            "max": [
                0.0,
                0.0,
                1.0
            ],
            "min": [
                0.0,
                0.0,
                1.0
            ]
        },
        {
            "bufferView": 6,
            "byteOffset": 0,
            "componentType": 5126,
            "count": 1,
            "type": "VEC2",
            "max": [
                0.4994029998779297,
                0.9964209794998169
            ],
            "min": [
                0.4994029998779297,
                0.9964209794998169
            ]
        },
        {
            "bufferView": 7,
            "byteOffset": 0,
            "componentType": 5125,
            "count": 3,
            "type": "SCALAR",
            "max": [
                0
            ],
            "min": [
                0
            ]
        },
        {
            "bufferView": 8,
            "byteOffset": 0,
            "componentType": 5126,
            "count": 522,
            "type": "VEC3",
            "max": [
                -30.4866943359375,
                3.176635980606079,
                301.2074279785156
            ],
            "min": [
                -33.66668701171875,
                0.0,
                300.9784240722656
            ]
        },
        {
            "bufferView": 9,
            "byteOffset": 0,
            "componentType": 5126,
            "count": 522,
            "type": "VEC3",
            "max": [
                1.0,
                1.0,
                0.0
            ],
            "min": [
                -1.0,
                -1.0,
                0.0
            ]
        },
        {
            "bufferView": 10,
            "byteOffset": 0,
            "componentType": 5126,
            "count": 522,
            "type": "VEC2",
            "max": [
                1.0,
                1.0
            ],
            "min": [
                -0.0,
                0.0
            ]
        },
        {
            "bufferView": 11,
            "byteOffset": 0,
            "componentType": 5125,
            "count": 960,
            "type": "SCALAR",
            "max": [
                521
            ],
            "min": [
                0
            ]
        },
        {
            "bufferView": 12,
            "byteOffset": 0,
            "componentType": 5126,
            "count": 1,
            "type": "VEC3",
            "max": [
                -32.07861328125,
                0.011353000067174435,
                301.2074279785156
            ],
            "min": [
                -32.07861328125,
                0.011353000067174435,
                301.2074279785156
            ]
        },
        {
            "bufferView": 13,
            "byteOffset": 0,
            "componentType": 5126,
            "count": 1,
            "type": "VEC3",
            "max": [
                0.0,
                0.0,
                1.0
            ],
            "min": [
                0.0,
                0.0,
                1.0
            ]
        },
        {
            "bufferView": 14,
            "byteOffset": 0,
            "componentType": 5126,
            "count": 1,
            "type": "VEC2",
            "max": [
                0.4994029998779297,
                0.9964209794998169
            ],
            "min": [
                0.4994029998779297,
                0.9964209794998169
            ]
        },
        {
            "bufferView": 15,
            "byteOffset": 0,
            "componentType": 5125,
            "count": 3,
            "type": "SCALAR",
            "max": [
                0
            ],
            "min": [
                0
            ]
        },
        {
            "bufferView": 16,
            "byteOffset": 0,
            "componentType": 5126,
            "count": 300,
            "type": "VEC3",
            "max": [
                -30.4866943359375,
                3.176635980606079,
                300.9784240722656
            ],
            "min": [
                -33.66668701171875,
                0.0,
                300.9784240722656
            ]
        },
        {
            "bufferView": 17,
            "byteOffset": 0,
            "componentType": 5126,
            "count": 300,
            "type": "VEC3",
            "max": [
                0.0,
                0.0,
                -1.0
            ],
            "min": [
                0.0,
                0.0,
                -1.0
            ]
        },
        {
            "bufferView": 18,
            "byteOffset": 0,
            "componentType": 5126,
            "count": 300,
            "type": "VEC2",
            "max": [
                1.0,
                1.0
            ],
            "min": [
                0.0,
                0.0
            ]
        },
        {
            "bufferView": 19,
            "byteOffset": 0,
            "componentType": 5125,
            "count": 1269,
            "type": "SCALAR",
            "max": [
                299
            ],
            "min": [
                0
            ]
        }
    ],
    "buffers": [
        {
            "byteLength": 49984,
            "uri": "result.bin"
        }
    ],
    "bufferViews": [
        {
            "buffer": 0,
            "byteOffset": 0,
            "byteLength": 3600,
            "target": 34962
        },
        {
            "buffer": 0,
            "byteOffset": 3600,
            "byteLength": 3600,
            "target": 34962
        },
        {
            "buffer": 0,
            "byteOffset": 7200,
            "byteLength": 2400,
            "target": 34962
        },
        {
            "buffer": 0,
            "byteOffset": 9600,
            "byteLength": 5076,
            "target": 34963
        },
        {
            "buffer": 0,
            "byteOffset": 14676,
            "byteLength": 12,
            "target": 34962
        },
        {
            "buffer": 0,
            "byteOffset": 14688,
            "byteLength": 12,
            "target": 34962
        },
        {
            "buffer": 0,
            "byteOffset": 14700,
            "byteLength": 8,
            "target": 34962
        },
        {
            "buffer": 0,
            "byteOffset": 14708,
            "byteLength": 12,
            "target": 34963
        },
        {
            "buffer": 0,
            "byteOffset": 14720,
            "byteLength": 6264,
            "target": 34962
        },
        {
            "buffer": 0,
            "byteOffset": 20984,
            "byteLength": 6264,
            "target": 34962
        },
        {
            "buffer": 0,
            "byteOffset": 27248,
            "byteLength": 4176,
            "target": 34962
        },
        {
            "buffer": 0,
            "byteOffset": 31424,
            "byteLength": 3840,
            "target": 34963
        },
        {
            "buffer": 0,
            "byteOffset": 35264,
            "byteLength": 12,
            "target": 34962
        },
        {
            "buffer": 0,
            "byteOffset": 35276,
            "byteLength": 12,
            "target": 34962
        },
        {
            "buffer": 0,
            "byteOffset": 35288,
            "byteLength": 8,
            "target": 34962
        },
        {
            "buffer": 0,
            "byteOffset": 35296,
            "byteLength": 12,
            "target": 34963
        },
        {
            "buffer": 0,
            "byteOffset": 35308,
            "byteLength": 3600,
            "target": 34962
        },
        {
            "buffer": 0,
            "byteOffset": 38908,
            "byteLength": 3600,
            "target": 34962
        },
        {
            "buffer": 0,
            "byteOffset": 42508,
            "byteLength": 2400,
            "target": 34962
        },
        {
            "buffer": 0,
            "byteOffset": 44908,
            "byteLength": 5076,
            "target": 34963
        }
    ],
    "materials": [
        {
            "name": "DefaultMaterial",
            "pbrMetallicRoughness": {
                "baseColorFactor": [
                    0.6000000238418579,
                    0.6000000238418579,
                    0.6000000238418579,
                    1.0
                ],
                "metallicFactor": 0.0
            }
        },
        {
            "name": "Layer 1 Front Inflation Material",
            "pbrMetallicRoughness": {
                "baseColorFactor": [
                    0.6000000238418579,
                    0.6000000238418579,
                    0.6000000238418579,
                    1.0
                ],
                "metallicFactor": 0.0
            }
        },
        {
            "name": "Layer 1 Front Bevel Material",
            "pbrMetallicRoughness": {
                "baseColorFactor": [
                    0.6000000238418579,
                    0.6000000238418579,
                    0.6000000238418579,
                    1.0
                ],
                "metallicFactor": 0.0
            }
        },
        {
            "name": "Layer 1 Extrusion Material",
            "pbrMetallicRoughness": {
                "baseColorFactor": [
                    0.6000000238418579,
                    0.6000000238418579,
                    0.6000000238418579,
                    1.0
                ],
                "metallicFactor": 0.0
            }
        },
        {
            "name": "Layer 1 Back Bevel Material",
            "pbrMetallicRoughness": {
                "baseColorFactor": [
                    0.6000000238418579,
                    0.6000000238418579,
                    0.6000000238418579,
                    1.0
                ],
                "metallicFactor": 0.0
            }
        },
        {
            "name": "Layer 1 Back Inflation Material",
            "pbrMetallicRoughness": {
                "baseColorFactor": [
                    0.6000000238418579,
                    0.6000000238418579,
                    0.6000000238418579,
                    1.0
                ],
                "metallicFactor": 0.0
            }
        }
    ],
    "meshes": [
        {
            "name": "Layer 1",
            "primitives": [
                {
                    "mode": 4,
                    "material": 1,
                    "indices": 3,
                    "attributes": {
                        "POSITION": 0,
                        "NORMAL": 1,
                        "TEXCOORD_0": 2
                    }
                },
                {
                    "mode": 4,
                    "material": 2,
                    "indices": 7,
                    "attributes": {
                        "POSITION": 4,
                        "NORMAL": 5,
                        "TEXCOORD_0": 6
                    }
                },
                {
                    "mode": 4,
                    "material": 3,
                    "indices": 11,
                    "attributes": {
                        "POSITION": 8,
                        "NORMAL": 9,
                        "TEXCOORD_0": 10
                    }
                },
                {
                    "mode": 4,
                    "material": 4,
                    "indices": 15,
                    "attributes": {
                        "POSITION": 12,
                        "NORMAL": 13,
                        "TEXCOORD_0": 14
                    }
                },
                {
                    "mode": 4,
                    "material": 5,
                    "indices": 19,
                    "attributes": {
                        "POSITION": 16,
                        "NORMAL": 17,
                        "TEXCOORD_0": 18
                    }
                }
            ]
        }
    ],
    "nodes": [
        {
            "name": "input.obj",
            "children": [
                1
            ]
        },
        {
            "name": "Layer 1",
            "mesh": 0
        }
    ],
    "scenes": [
        {
            "nodes": [
                0
            ]
        }
    ],
    "scene": 0
}