{
    "asset" : {
        "generator" : "Khronos glTF Blender I/O v1.6.16",
        "version" : "2.0"
    },
    "scene" : 0,
    "scenes" : [
        {
            "name" : "Scene",
            "nodes" : [
                0,
                1,
                2
            ]
        }
    ],
    "nodes" : [
        {
            "name" : "Light",
            "rotation" : [
                0.03441089019179344,
                0.8515526056289673,
                -0.2989051640033722,
                0.42933666706085205
            ],
            "translation" : [
                3.1800825595855713,
                1.7441893815994263,
                0.477888286113739
            ]
        },
        {
            "name" : "Camera",
            "rotation" : [
                0.6946365833282471,
                0.004186784848570824,
                -0.006475495640188456,
                0.7193195223808289
            ],
            "translation" : [
                0.12133908271789551,
                1.8883315324783325,
                10.829501152038574
            ]
        },
        {
            "mesh" : 0,
            "name" : "REVA Logo Grey BG - Orange and White_PNG_1",
            "rotation" : [
                0.7071068286895752,
                0,
                0,
                0.7071067094802856
            ],
            "translation" : [
                0.0002988893538713455,
                1.5983394384384155,
                -0.004028737545013428
            ]
        }
    ],
    "materials" : [
        {
            "doubleSided" : true,
            "name" : "Layer 1 Front Inflation Material",
            "pbrMetallicRoughness" : {
                "baseColorFactor" : [
                    0.800000011920929,
                    0.800000011920929,
                    0.800000011920929,
                    1
                ],
                "metallicFactor" : 0,
                "roughnessFactor" : 0.5
            }
        },
        {
            "doubleSided" : true,
            "name" : "Layer 1 Extrusion Material",
            "pbrMetallicRoughness" : {
                "baseColorFactor" : [
                    0.800000011920929,
                    0.800000011920929,
                    0.800000011920929,
                    1
                ],
                "metallicFactor" : 0,
                "roughnessFactor" : 0.5
            }
        },
        {
            "doubleSided" : true,
            "name" : "Layer 1 Back Inflation Material",
            "pbrMetallicRoughness" : {
                "baseColorFactor" : [
                    0.800000011920929,
                    0.800000011920929,
                    0.800000011920929,
                    1
                ],
                "metallicFactor" : 0,
                "roughnessFactor" : 0.5
            }
        }
    ],
    "meshes" : [
        {
            "name" : "REVA Logo Grey BG - Orange and White_PNG_1",
            "primitives" : [
                {
                    "attributes" : {
                        "POSITION" : 0,
                        "NORMAL" : 1,
                        "TEXCOORD_0" : 2
                    },
                    "indices" : 3,
                    "material" : 0
                },
                {
                    "attributes" : {
                        "POSITION" : 4,
                        "NORMAL" : 5,
                        "TEXCOORD_0" : 6
                    },
                    "indices" : 7,
                    "material" : 1
                },
                {
                    "attributes" : {
                        "POSITION" : 8,
                        "NORMAL" : 9,
                        "TEXCOORD_0" : 10
                    },
                    "indices" : 11,
                    "material" : 2
                }
            ]
        }
    ],
    "accessors" : [
        {
            "bufferView" : 0,
            "componentType" : 5126,
            "count" : 300,
            "max" : [
                1.5921287536621094,
                0.115020751953125,
                1.589128017425537
            ],
            "min" : [
                -1.5878639221191406,
                0.115020751953125,
                -1.587507963180542
            ],
            "type" : "VEC3"
        },
        {
            "bufferView" : 1,
            "componentType" : 5126,
            "count" : 300,
            "type" : "VEC3"
        },
        {
            "bufferView" : 2,
            "componentType" : 5126,
            "count" : 300,
            "type" : "VEC2"
        },
        {
            "bufferView" : 3,
            "componentType" : 5123,
            "count" : 1269,
            "type" : "SCALAR"
        },
        {
            "bufferView" : 4,
            "componentType" : 5126,
            "count" : 522,
            "max" : [
                1.5921287536621094,
                0.115020751953125,
                1.589128017425537
            ],
            "min" : [
                -1.5878639221191406,
                -0.113983154296875,
                -1.587507963180542
            ],
            "type" : "VEC3"
        },
        {
            "bufferView" : 5,
            "componentType" : 5126,
            "count" : 522,
            "type" : "VEC3"
        },
        {
            "bufferView" : 6,
            "componentType" : 5126,
            "count" : 522,
            "type" : "VEC2"
        },
        {
            "bufferView" : 7,
            "componentType" : 5123,
            "count" : 960,
            "type" : "SCALAR"
        },
        {
            "bufferView" : 8,
            "componentType" : 5126,
            "count" : 300,
            "max" : [
                1.5921287536621094,
                -0.113983154296875,
                1.589128017425537
            ],
            "min" : [
                -1.5878639221191406,
                -0.113983154296875,
                -1.587507963180542
            ],
            "type" : "VEC3"
        },
        {
            "bufferView" : 9,
            "componentType" : 5126,
            "count" : 300,
            "type" : "VEC3"
        },
        {
            "bufferView" : 10,
            "componentType" : 5126,
            "count" : 300,
            "type" : "VEC2"
        },
        {
            "bufferView" : 11,
            "componentType" : 5123,
            "count" : 1269,
            "type" : "SCALAR"
        }
    ],
    "bufferViews" : [
        {
            "buffer" : 0,
            "byteLength" : 3600,
            "byteOffset" : 0
        },
        {
            "buffer" : 0,
            "byteLength" : 3600,
            "byteOffset" : 3600
        },
        {
            "buffer" : 0,
            "byteLength" : 2400,
            "byteOffset" : 7200
        },
        {
            "buffer" : 0,
            "byteLength" : 2538,
            "byteOffset" : 9600
        },
        {
            "buffer" : 0,
            "byteLength" : 6264,
            "byteOffset" : 12140
        },
        {
            "buffer" : 0,
            "byteLength" : 6264,
            "byteOffset" : 18404
        },
        {
            "buffer" : 0,
            "byteLength" : 4176,
            "byteOffset" : 24668
        },
        {
            "buffer" : 0,
            "byteLength" : 1920,
            "byteOffset" : 28844
        },
        {
            "buffer" : 0,
            "byteLength" : 3600,
            "byteOffset" : 30764
        },
        {
            "buffer" : 0,
            "byteLength" : 3600,
            "byteOffset" : 34364
        },
        {
            "buffer" : 0,
            "byteLength" : 2400,
            "byteOffset" : 37964
        },
        {
            "buffer" : 0,
            "byteLength" : 2538,
            "byteOffset" : 40364
        }
    ],
    "buffers" : [
        {
            "byteLength" : 42904,
            "uri" : "data:application/octet-stream;base64,"
        }
    ]
}
